<svg width="400" height="401" viewBox="0 0 400 401" fill="none" xmlns="http://www.w3.org/2000/svg">
<path d="M4.24148 374.961L97.0361 282.162H98.0354C69.4337 248.437 54.9799 204.958 57.6977 160.82C60.4154 116.682 80.094 75.3049 112.617 45.3436C145.14 15.3823 187.988 -0.842101 232.198 0.0643565C276.409 0.970814 318.556 18.9379 349.824 50.2071C381.091 81.4764 399.058 123.626 399.964 167.838C400.87 212.05 384.647 254.9 354.687 287.425C324.727 319.949 283.352 339.629 239.216 342.347C195.08 345.064 151.603 330.61 117.879 302.007C117.879 302.007 117.879 302.721 117.879 303.006L25.0846 395.805C23.7574 397.143 22.1784 398.206 20.4388 398.93C18.6991 399.655 16.8332 400.028 14.9485 400.028C13.0639 400.028 11.198 399.655 9.4583 398.93C7.71862 398.206 6.13966 397.143 4.81251 395.805C3.34889 394.509 2.167 392.927 1.3401 391.155C0.513197 389.384 0.0589009 387.461 0.00536333 385.507C-0.0481743 383.553 0.300192 381.609 1.02887 379.794C1.75754 377.98 2.85101 376.335 4.24148 374.961ZM228.519 313.714C256.754 313.714 284.356 305.341 307.833 289.653C331.309 273.966 349.607 251.669 360.413 225.581C371.218 199.494 374.045 170.788 368.537 143.094C363.028 115.4 349.432 89.9609 329.466 69.9945C309.501 50.0281 284.063 36.4308 256.37 30.9221C228.677 25.4134 199.973 28.2406 173.887 39.0464C147.8 49.8521 125.504 68.151 109.817 91.629C94.1307 115.107 85.7579 142.71 85.7579 170.946C85.7579 189.695 89.4505 208.26 96.625 225.581C103.799 242.903 114.315 258.641 127.572 271.898C140.828 285.155 156.566 295.672 173.887 302.846C191.207 310.021 209.771 313.714 228.519 313.714Z" fill="#0085FF"/>
</svg>
