<?xml version="1.0" encoding="utf-8"?>
<!-- Svg Vector Icons : http://www.onlinewebfonts.com/icon -->
<!DOCTYPE svg PUBLIC "-//W3C//DTD SVG 1.1//EN" "http://www.w3.org/Graphics/SVG/1.1/DTD/svg11.dtd">
<svg version="1.1" xmlns="http://www.w3.org/2000/svg" xmlns:xlink="http://www.w3.org/1999/xlink" x="0px" y="0px" viewBox="0 0 1000 1000" enable-background="new 0 0 1000 1000" xml:space="preserve">
<metadata> Svg Vector Icons : http://www.onlinewebfonts.com/icon </metadata>
<g><path d="M990,829.7c0,99.4-246.5,151.4-490,151.4c-243.5,0-490-52-490-151.4c0-88.2,189.9-125,271.5-136.7c12.1-1.7,23.4,6.7,25.1,18.8c1.7,12.1-6.7,23.4-18.8,25.1c-170,24.4-233.4,69.8-233.4,92.7c0,43.6,173.6,107,445.6,107c272,0,445.6-63.4,445.6-107c0-23.1-64-68.7-235.7-93c-12.1-1.7-20.6-13-18.9-25.1c1.7-12.1,13-20.5,25.1-18.9C798.5,704.3,990,741,990,829.7L990,829.7z M406,302c0-51.8,42.1-94,93.9-94c51.8,0,94,42.2,94,94c0,51.8-42.2,94-94,94C448.2,396,406,353.8,406,302L406,302z M638.4,302c0-76.3-62.1-138.4-138.4-138.4c-76.3,0-138.4,62.1-138.4,138.4c0,76.3,62.1,138.4,138.4,138.4C576.3,440.4,638.4,378.3,638.4,302L638.4,302z M500,63.3c136.7,0,247.8,111.2,247.8,247.9c0,189.4-191.9,402.2-248,460.3c-56.2-57.1-247.6-265.6-247.6-460.3C252.2,174.5,363.4,63.3,500,63.3L500,63.3z M484.8,819.2l15.4,14.3l15.2-14.5c11.3-10.8,276.9-268,276.9-507.8C792.2,150,661.1,18.9,500,18.9c-161.1,0-292.2,131.1-292.2,292.3C207.8,557.4,473.5,808.6,484.8,819.2L484.8,819.2z"/></g>
</svg>