<svg width="202" height="202" viewBox="0 0 202 202" fill="none" xmlns="http://www.w3.org/2000/svg">
<path d="M148.5 48.5C148.5 71.846 127.876 91.5 101.5 91.5C75.1241 91.5 54.5 71.846 54.5 48.5C54.5 25.154 75.1241 5.5 101.5 5.5C127.876 5.5 148.5 25.154 148.5 48.5Z" stroke="#0085FF" stroke-width="11"/>
<path d="M5.71076 196H5.62528C6.7291 171.935 15.1061 150.569 29.9298 134.926C45.8239 118.153 69.5605 107.5 101 107.5C157.264 107.5 193.836 146.531 196.36 196H196.289H196.186H196.082H195.977H195.871H195.765H195.657H195.549H195.44H195.33H195.219H195.107H194.994H194.881H194.767H194.651H194.535H194.419H194.301H194.182H194.063H193.943H193.822H193.7H193.577H193.454H193.329H193.204H193.078H192.951H192.823H192.695H192.566H192.436H192.305H192.173H192.04H191.907H191.773H191.638H191.502H191.365H191.228H191.09H190.951H190.811H190.67H190.529H190.387H190.244H190.1H189.955H189.81H189.664H189.517H189.369H189.221H189.071H188.921H188.77H188.619H188.466H188.313H188.159H188.004H187.849H187.693H187.536H187.378H187.219H187.06H186.9H186.739H186.578H186.415H186.252H186.088H185.924H185.758H185.592H185.426H185.258H185.09H184.921H184.751H184.58H184.409H184.237H184.064H183.891H183.717H183.542H183.366H183.19H183.013H182.835H182.656H182.477H182.297H182.116H181.935H181.753H181.57H181.386H181.202H181.017H180.832H180.645H180.458H180.27H180.082H179.893H179.703H179.512H179.321H179.129H178.937H178.743H178.549H178.355H178.159H177.963H177.766H177.569H177.371H177.172H176.973H176.773H176.572H176.37H176.168H175.965H175.762H175.558H175.353H175.148H174.942H174.735H174.527H174.319H174.111H173.901H173.691H173.481H173.269H173.057H172.845H172.632H172.418H172.203H171.988H171.772H171.556H171.339H171.121H170.903H170.684H170.464H170.244H170.023H169.802H169.58H169.357H169.134H168.91H168.686H168.46H168.235H168.008H167.781H167.554H167.326H167.097H166.868H166.638H166.407H166.176H165.944H165.712H165.479H165.245H165.011H164.777H164.541H164.305H164.069H163.832H163.594H163.356H163.117H162.878H162.638H162.398H162.156H161.915H161.673H161.43H161.187H160.943H160.698H160.453H160.208H159.962H159.715H159.468H159.22H158.972H158.723H158.473H158.223H157.973H157.722H157.47H157.218H156.965H156.712H156.458H156.204H155.949H155.694H155.438H155.182H154.925H154.667H154.409H154.151H153.892H153.632H153.372H153.112H152.851H152.589H152.327H152.064H151.801H151.538H151.273H151.009H150.744H150.478H150.212H149.945H149.678H149.411H149.143H148.874H148.605H148.335H148.065H147.795H147.524H147.252H146.98H146.708H146.435H146.162H145.888H145.613H145.339H145.063H144.788H144.511H144.235H143.958H143.68H143.402H143.124H142.845H142.565H142.285H142.005H141.724H141.443H141.161H140.879H140.597H140.314H140.03H139.746H139.462H139.177H138.892H138.607H138.321H138.034H137.747H137.46H137.172H136.884H136.595H136.306H136.017H135.727H135.437H135.146H134.855H134.564H134.272H133.979H133.687H133.394H133.1H132.806H132.512H132.217H131.922H131.627H131.331H131.034H130.738H130.441H130.143H129.845H129.547H129.248H128.949H128.65H128.35H128.05H127.75H127.449H127.147H126.846H126.544H126.241H125.939H125.636H125.332H125.028H124.724H124.42H124.115H123.81H123.504H123.198H122.892H122.585H122.278H121.971H121.663H121.355H121.047H120.738H120.429H120.12H119.81H119.5H119.189H118.879H118.568H118.256H117.945H117.633H117.32H117.008H116.695H116.381H116.068H115.754H115.44H115.125H114.81H114.495H114.179H113.864H113.548H113.231H112.915H112.598H112.28H111.963H111.645H111.327H111.008H110.689H110.37H110.051H109.731H109.412H109.091H108.771H108.45H108.129H107.808H107.486H107.165H106.842H106.52H106.197H105.875H105.551H105.228H104.904H104.58H104.256H103.932H103.607H103.282H102.957H102.631H102.305H101.979H101.653H101.327H101H100.673H100.347H100.021H99.6946H99.3689H99.0434H98.7181H98.3931H98.0684H97.7439H97.4197H97.0958H96.7721H96.4486H96.1255H95.8026H95.4799H95.1575H94.8354H94.5136H94.192H93.8708H93.5498H93.229H92.9086H92.5884H92.2685H91.9489H91.6296H91.3105H90.9918H90.6733H90.3552H90.0373H89.7197H89.4024H89.0854H88.7688H88.4524H88.1363H87.8205H87.505H87.1899H86.875H86.5605H86.2462H85.9323H85.6187H85.3054H84.9924H84.6798H84.3674H84.0554H83.7437H83.4324H83.1213H82.8106H82.5002H82.1902H81.8805H81.5711H81.262H80.9533H80.645H80.337H80.0293H79.7219H79.4149H79.1083H78.802H78.496H78.1904H77.8852H77.5803H77.2758H76.9716H76.6678H76.3643H76.0613H75.7585H75.4562H75.1542H74.8525H74.5513H74.2504H73.9499H73.6498H73.35H73.0506H72.7516H72.453H72.1548H71.8569H71.5595H71.2624H70.9657H70.6694H70.3735H70.078H69.7829H69.4881H69.1938H68.8999H68.6064H68.3132H68.0205H67.7282H67.4363H67.1448H66.8537H66.5631H66.2728H65.983H65.6936H65.4045H65.116H64.8278H64.5401H64.2527H63.9658H63.6794H63.3933H63.1077H62.8226H62.5378H62.2535H61.9697H61.6862H61.4033H61.1207H60.8386H60.557H60.2757H59.995H59.7147H59.4348H59.1554H58.8764H58.5979H58.3199H58.0423H57.7652H57.4885H57.2123H56.9366H56.6613H56.3865H56.1122H55.8383H55.5649H55.292H55.0196H54.7476H54.4762H54.2052H53.9346H53.6646H53.395H53.126H52.8574H52.5893H52.3217H52.0546H51.788H51.5219H51.2563H50.9912H50.7266H50.4624H50.1988H49.9357H49.6731H49.411H49.1495H48.8884H48.6278H48.3678H48.1083H47.8493H47.5908H47.3328H47.0753H46.8184H46.562H46.3062H46.0508H45.796H45.5417H45.288H45.0348H44.7821H44.5299H44.2783H44.0273H43.7768H43.5268H43.2774H43.0285H42.7801H42.5324H42.2851H42.0385H41.7923H41.5468H41.3018H41.0573H40.8134H40.5701H40.3273H40.0851H39.8435H39.6024H39.3619H39.122H38.8827H38.6439H38.4057H38.1681H37.9311H37.6946H37.4587H37.2234H36.9887H36.7546H36.5211H36.2882H36.0558H35.8241H35.5929H35.3623H35.1324H34.903H34.6743H34.4461H34.2185H33.9916H33.7652H33.5395H33.3144H33.0899H32.866H32.6427H32.42H32.198H31.9766H31.7558H31.5356H31.316H31.0971H30.8788H30.6611H30.4441H30.2276H30.0119H29.7967H29.5822H29.3683H29.1551H28.9425H28.7306H28.5193H28.3086H28.0986H27.8893H27.6806H27.4725H27.2651H27.0584H26.8523H26.6468H26.4421H26.238H26.0345H25.8317H25.6296H25.4282H25.2274H25.0273H24.8279H24.6291H24.431H24.2336H24.0369H23.8408H23.6455H23.4508H23.2568H23.0635H22.8709H22.6789H22.4877H22.2971H22.1073H21.9181H21.7297H21.5419H21.3548H21.1685H20.9828H20.7979H20.6136H20.4301H20.2472H20.0651H19.8837H19.703H19.5231H19.3438H19.1653H18.9874H18.8103H18.634H18.4583H18.2834H18.1092H17.9357H17.763H17.591H17.4197H17.2492H17.0794H16.9104H16.7421H16.5745H16.4077H16.2416H16.0763H15.9117H15.7478H15.5847H15.4224H15.2608H15.1H14.94H14.7807H14.6221H14.4643H14.3073H14.1511H13.9956H13.8409H13.6869H13.5337H13.3813H13.2297H13.0789H12.9288H12.7795H12.631H12.4833H12.3363H12.1902H12.0448H11.9002H11.7564H11.6134H11.4712H11.3298H11.1892H11.0493H10.9103H10.7721H10.6347H10.4981H10.3623H10.2273H10.0931H9.9597H9.82713H9.69537H9.56443H9.43431H9.305H9.17652H9.04885H8.92201H8.79599H8.6708H8.54644H8.4229H8.3002H8.17832H8.05729H7.93708H7.81771H7.69918H7.58149H7.46465H7.34864H7.23348H7.11916H7.0057H6.89308H6.78131H6.67039H6.56033H6.45113H6.34278H6.23528H6.12865H6.02288H5.91798H5.81393H5.71076Z" stroke="#0085FF" stroke-width="11"/>
</svg>
