<svg width="684" height="650" viewBox="0 0 684 650" fill="none" xmlns="http://www.w3.org/2000/svg">
<path d="M209 525C236.614 525 259 547.387 259 575C259 602.613 236.614 625 209 625C181.386 625 159 602.613 159 575C159 547.387 181.386 525 209 525Z" stroke="#0085FF" stroke-width="50"/>
<path d="M509 525.003C536.613 525.003 559 547.387 559 575.003C559 602.617 536.613 625.003 509 625.003C481.387 625.003 459 602.617 459 575.003C459 547.387 481.387 525.003 509 525.003Z" stroke="#0085FF" stroke-width="50"/>
<path d="M33.9589 1.41522C20.9332 -3.16445 6.66155 3.68256 2.08221 16.7079C-2.49745 29.7336 4.34955 44.0052 17.3749 48.5846L33.9589 1.41522ZM647.594 254.425L672.077 259.473L672.11 259.32L647.594 254.425ZM149.27 250.333V159.612H99.2695V250.333H149.27ZM42.6659 4.47622L33.9589 1.41522L17.3749 48.5846L26.0819 51.6459L42.6659 4.47622ZM323.584 466.667H500.347V416.667H323.584V466.667ZM149.27 159.612C149.27 136.04 149.304 116.37 147.573 100.386C145.782 83.8396 141.902 68.7489 132.503 54.9942L91.2205 83.2042C94.2292 87.6072 96.5526 93.6545 97.8636 105.766C99.2356 118.44 99.2695 134.947 99.2695 159.612H149.27ZM26.0819 51.6459C48.3355 59.4699 62.9605 64.6549 73.7222 69.9352C83.8295 74.8946 88.2852 78.9089 91.2205 83.2042L132.503 54.9942C123.03 41.1322 110.435 32.2542 95.7472 25.0476C81.7132 18.1616 63.7985 11.9062 42.6659 4.47622L26.0819 51.6459ZM99.2695 250.333C99.2695 298.75 99.7239 333.663 104.292 360.337C109.17 388.813 118.908 409.203 137.115 428.407L173.4 394.007C162.728 382.75 156.971 371.727 153.575 351.897C149.869 330.26 149.27 299.967 149.27 250.333H99.2695ZM323.584 416.667C276.357 416.667 243.588 416.607 218.899 413.107C195.072 409.727 182.484 403.587 173.4 394.007L137.115 428.407C156.911 449.287 182.004 458.377 211.879 462.61C240.892 466.727 277.845 466.667 323.584 466.667V416.667ZM124.27 154H528.627V104H124.27V154ZM623.107 249.378L606.45 330.203L655.42 340.297L672.077 259.473L623.107 249.378ZM528.627 154C557.174 154 582.297 154.033 602.124 156.25C611.977 157.351 619.35 158.881 624.53 160.702C629.91 162.592 630.767 164.042 630.337 163.48L669.967 132.993C662.134 122.812 651.12 117.048 641.107 113.529C630.89 109.939 619.337 107.862 607.68 106.559C584.487 103.967 556.247 104 528.627 104V154ZM672.11 259.32C677.75 231.056 682.54 207.341 683.714 188.346C684.917 168.806 682.694 149.539 669.967 132.993L630.337 163.48C632.404 166.169 634.687 171.012 633.807 185.266C632.894 200.064 629.007 219.826 623.077 249.532L672.11 259.32ZM500.347 466.667C525.737 466.667 547.044 466.71 564.22 464.607C582.077 462.423 598.364 457.647 612.58 446.06L580.994 407.3C576.82 410.7 570.904 413.417 558.147 414.98C544.707 416.623 526.99 416.667 500.347 416.667V466.667ZM606.45 330.203C601.07 356.297 597.45 373.643 593.127 386.473C589.024 398.65 585.167 403.9 580.994 407.3L612.58 446.06C626.797 434.473 634.764 419.487 640.51 402.44C646.037 386.04 650.294 365.163 655.42 340.297L606.45 330.203Z" fill="#0085FF"/>
</svg>
