<svg width="37" height="37" viewBox="0 0 37 37" fill="none" xmlns="http://www.w3.org/2000/svg">
<path d="M9.55606 11.2941V9.23529C9.55606 7.05115 10.4984 4.95648 12.1757 3.41206C13.853 1.86765 16.1278 1 18.5 1C20.8721 1 23.147 1.86765 24.8242 3.41206C26.5017 4.95648 27.4439 7.05115 27.4439 9.23529V11.2941M9.55606 11.2941H6.96293C4.63711 11.2941 2.69956 12.9357 2.50642 15.0698L1.01576 31.5404C0.798486 33.941 2.85599 36 5.47227 36H31.5277C34.144 36 36.2016 33.941 35.9842 31.5404L34.4935 15.0698C34.3003 12.9357 32.3628 11.2941 30.037 11.2941H27.4439M9.55606 11.2941H27.4439" stroke="#0085FF" stroke-width="2" stroke-linecap="round" stroke-linejoin="round"/>
<path fill-rule="evenodd" clip-rule="evenodd" d="M17.6973 18.2209V29.6163C17.6973 30.2902 18.2442 30.8372 18.9182 30.8372C19.5921 30.8372 20.1391 30.2902 20.1391 29.6163V18.2209C20.1391 17.547 19.5921 17 18.9182 17C18.2442 17 17.6973 17.547 17.6973 18.2209Z" fill="#0085FF"/>
<path fill-rule="evenodd" clip-rule="evenodd" d="M13.2209 25.1396H24.6163C25.2902 25.1396 25.8372 24.5926 25.8372 23.9187C25.8372 23.2447 25.2902 22.6978 24.6163 22.6978H13.2209C12.547 22.6978 12 23.2447 12 23.9187C12 24.5926 12.547 25.1396 13.2209 25.1396Z" fill="#0085FF"/>
</svg>
