<svg width="37" height="37" viewBox="0 0 37 37" fill="none" xmlns="http://www.w3.org/2000/svg">
<path d="M32 12H5C3.34315 12 2 13.3431 2 15V32C2 33.6569 3.34315 35 5 35H32C33.6569 35 35 33.6569 35 32V15C35 13.3431 33.6569 12 32 12Z" fill="#0085FF"/>
<path d="M9.55606 11.2941V9.23529C9.55606 7.05115 10.4984 4.95648 12.1757 3.41206C13.853 1.86765 16.1278 1 18.5 1C20.8721 1 23.147 1.86765 24.8242 3.41206C26.5017 4.95648 27.4439 7.05115 27.4439 9.23529V11.2941M9.55606 11.2941H6.96293C4.63711 11.2941 2.69956 12.9357 2.50642 15.0698L1.01576 31.5404C0.798483 33.941 2.85599 36 5.47227 36H31.5277C34.144 36 36.2016 33.941 35.9842 31.5404L34.4935 15.0698C34.3003 12.9357 32.3628 11.2941 30.037 11.2941H27.4439M9.55606 11.2941H27.4439" stroke="#0085FF" stroke-width="2" stroke-linecap="round" stroke-linejoin="round"/>
<path fill-rule="evenodd" clip-rule="evenodd" d="M13.2209 25.1391H24.6163C25.2902 25.1391 25.8372 24.5921 25.8372 23.9182C25.8372 23.2442 25.2902 22.6973 24.6163 22.6973H13.2209C12.547 22.6973 12 23.2442 12 23.9182C12 24.5921 12.547 25.1391 13.2209 25.1391Z" fill="white"/>
</svg>
