<!-- icon666.com - MILLIONS vector ICONS FREE --><svg version="1.1" id="Layer_1" xmlns="http://www.w3.org/2000/svg" xmlns:xlink="http://www.w3.org/1999/xlink" x="0px" y="0px" viewBox="0 0 512 512" style="enable-background:new 0 0 512 512;" xml:space="preserve"><g><g><path d="M495.664,492.048L472.656,15.232C472.24,6.704,465.2,0,456.672,0h-77.248c-8.304,0-15.232,6.352-15.936,14.624 l-25.152,292.384L201.008,210.88c-4.88-3.408-11.28-3.808-16.56-1.088c-5.28,2.768-8.608,8.24-8.608,14.208v81.264L41.008,210.88 c-4.88-3.408-11.264-3.808-16.56-1.088c-5.28,2.768-8.608,8.24-8.608,14.208v272c0,8.832,7.168,16,16,16h160h160h16h112 c0.112,0,0.208,0,0.32,0c8.832,0,16-7.168,16-16C496.16,494.64,495.984,493.312,495.664,492.048z M175.84,480h-128V254.72 l128,89.6V480z M335.84,480h-128V336v-81.28l128,89.6V480z M394.112,32h47.312l2.32,48h-53.776L394.112,32z M367.84,480 l-0.048-142.624L388.592,96h55.92l18.544,384H367.84z"></path></g></g></svg>