<svg width="34" height="30" viewBox="0 0 34 30" fill="none" xmlns="http://www.w3.org/2000/svg">
<ellipse cx="10.5" cy="11.5" rx="7.5" ry="9.5" fill="#0085FF"/>
<ellipse cx="23.5" cy="11.5" rx="7.5" ry="9.5" fill="#0085FF"/>
<path d="M24.5 19.5C24.5 24.7467 20.6421 27 16.5 27C12.3579 27 9 22.7467 9 17.5C9 12.2533 12.3579 8 16.5 8C20.6421 8 24.5 14.2533 24.5 19.5Z" fill="#0085FF"/>
<path d="M16.9998 28C16.9998 28 26.2822 21.7897 30.3249 15.8204C34.3276 9.91181 30.4725 3.34516 25.9333 2.24202C19.9055 0.775714 16.9998 6.45132 16.9998 6.45132C16.9998 6.45132 14.0945 0.775714 8.06678 2.24202C3.5271 3.34597 -0.327133 9.91261 3.6747 15.8204C7.71739 21.7897 16.9998 28 16.9998 28Z" stroke="#0085FF" stroke-width="2.2" stroke-linejoin="round"/>
</svg>
