<svg width="38" height="40" viewBox="0 0 38 40" fill="none" xmlns="http://www.w3.org/2000/svg">
<g clip-path="url(#clip0_627_2)">
<path d="M19.1739 35.2112C29.2111 35.2112 37.3478 27.5527 37.3478 18.1056C37.3478 8.65843 29.2111 1 19.1739 1C9.1367 1 1 8.65843 1 18.1056C1 24.4371 4.65476 29.9651 10.087 32.9228V39L15.1177 34.7835C16.4219 35.0634 17.7796 35.2112 19.1739 35.2112Z" stroke="#0085FF" stroke-linejoin="round"/>
<path d="M10.1719 20.7734C11.5526 20.7734 12.6719 19.6542 12.6719 18.2734C12.6719 16.8927 11.5526 15.7734 10.1719 15.7734C8.79115 15.7734 7.67188 16.8927 7.67188 18.2734C7.67188 19.6542 8.79115 20.7734 10.1719 20.7734Z" stroke="#0085FF"/>
<path d="M19.1719 20.7734C20.5526 20.7734 21.6719 19.6542 21.6719 18.2734C21.6719 16.8927 20.5526 15.7734 19.1719 15.7734C17.7912 15.7734 16.6719 16.8927 16.6719 18.2734C16.6719 19.6542 17.7912 20.7734 19.1719 20.7734Z" stroke="#0085FF"/>
<path d="M28.1719 20.7734C29.5526 20.7734 30.6719 19.6542 30.6719 18.2734C30.6719 16.8927 29.5526 15.7734 28.1719 15.7734C26.7912 15.7734 25.6719 16.8927 25.6719 18.2734C25.6719 19.6542 26.7912 20.7734 28.1719 20.7734Z" stroke="#0085FF"/>
</g>
<defs>
<clipPath id="clip0_627_2">
<rect width="38" height="40" fill="white"/>
</clipPath>
</defs>
</svg>
