<svg width="40" height="40" viewBox="0 0 40 40" fill="none" xmlns="http://www.w3.org/2000/svg">
<path d="M20 39.5C30.7696 39.5 39.5 30.7696 39.5 20C39.5 9.23045 30.7696 0.5 20 0.5C9.23045 0.5 0.5 9.23045 0.5 20C0.5 30.7696 9.23045 39.5 20 39.5Z" stroke="#585858"/>
<path d="M17.6422 13.5716C17.4796 11.7586 15.9839 10.3552 14.1642 10.3083C12.2903 10.2599 10.5752 11.7031 10.7361 13.6846C11.4182 22.0842 17.8951 28.9043 26.2482 30.019C28.2192 30.282 29.7492 28.6433 29.7975 26.769C29.8445 24.9496 28.5207 23.3836 26.7188 23.127L25.9546 23.0181C24.6078 22.8263 23.2473 23.2607 22.2609 24.1975L21.2472 25.1602C18.7133 23.711 16.6579 21.5388 15.341 18.9404L16.3394 17.9922C17.3285 17.0528 17.8342 15.713 17.7124 14.3543L17.6422 13.5716Z" stroke="#585858"/>
</svg>
