<svg width="38" height="40" viewBox="0 0 38 40" fill="none" xmlns="http://www.w3.org/2000/svg">
<g clip-path="url(#clip0_627_7)">
<path d="M19.1739 35.2112C29.2111 35.2112 37.3478 27.5527 37.3478 18.1056C37.3478 8.65843 29.2111 1 19.1739 1C9.1367 1 1 8.65843 1 18.1056C1 24.4371 4.65476 29.9651 10.087 32.9228V39L15.1177 34.7835C16.4219 35.0634 17.7796 35.2112 19.1739 35.2112Z" fill="#0085FF" stroke="#0085FF" stroke-linejoin="round"/>
<path d="M9.27179 21.2725C11.0787 21.2725 12.5436 19.8683 12.5436 18.1362C12.5436 16.4041 11.0787 15 9.27179 15C7.46483 15 6 16.4041 6 18.1362C6 19.8683 7.46483 21.2725 9.27179 21.2725Z" fill="white"/>
<path d="M19.0843 21.2725C20.8913 21.2725 22.3561 19.8683 22.3561 18.1362C22.3561 16.4041 20.8913 15 19.0843 15C17.2774 15 15.8125 16.4041 15.8125 18.1362C15.8125 19.8683 17.2774 21.2725 19.0843 21.2725Z" fill="white"/>
<path d="M28.9045 21.2725C30.7115 21.2725 32.1763 19.8683 32.1763 18.1362C32.1763 16.4041 30.7115 15 28.9045 15C27.0976 15 25.6328 16.4041 25.6328 18.1362C25.6328 19.8683 27.0976 21.2725 28.9045 21.2725Z" fill="white"/>
</g>
<defs>
<clipPath id="clip0_627_7">
<rect width="38" height="40" fill="white"/>
</clipPath>
</defs>
</svg>
