<svg width="38" height="40" viewBox="0 0 38 40" fill="none" xmlns="http://www.w3.org/2000/svg">
<path d="M19.1739 35.2112C29.2111 35.2112 37.3478 27.5527 37.3478 18.1056C37.3478 8.65843 29.2111 1 19.1739 1C9.1367 1 1 8.65843 1 18.1056C1 24.4371 4.65476 29.9651 10.087 32.9228V39L15.1177 34.7835C16.4219 35.0634 17.7796 35.2112 19.1739 35.2112Z" stroke="#585858" stroke-linejoin="round"/>
<path d="M10.1743 20.7729C11.555 20.7729 12.6743 19.6537 12.6743 18.2729C12.6743 16.8922 11.555 15.7729 10.1743 15.7729C8.7936 15.7729 7.67432 16.8922 7.67432 18.2729C7.67432 19.6537 8.7936 20.7729 10.1743 20.7729Z" stroke="#585858"/>
<path d="M19.1743 20.7729C20.555 20.7729 21.6743 19.6537 21.6743 18.2729C21.6743 16.8922 20.555 15.7729 19.1743 15.7729C17.7936 15.7729 16.6743 16.8922 16.6743 18.2729C16.6743 19.6537 17.7936 20.7729 19.1743 20.7729Z" stroke="#585858"/>
<path d="M28.1743 20.7729C29.555 20.7729 30.6743 19.6537 30.6743 18.2729C30.6743 16.8922 29.555 15.7729 28.1743 15.7729C26.7936 15.7729 25.6743 16.8922 25.6743 18.2729C25.6743 19.6537 26.7936 20.7729 28.1743 20.7729Z" stroke="#585858"/>
</svg>
