<svg width="40" height="40" viewBox="0 0 40 40" fill="none" xmlns="http://www.w3.org/2000/svg">
<path d="M20 39.5C30.7696 39.5 39.5 30.7696 39.5 20C39.5 9.23045 30.7696 0.5 20 0.5C9.23045 0.5 0.5 9.23045 0.5 20C0.5 30.7696 9.23045 39.5 20 39.5Z" fill="#585858" stroke="#585858"/>
<path d="M14.1512 10.8077C15.7171 10.8481 17.0042 12.0557 17.1441 13.6159L17.2143 14.3986C17.3225 15.6051 16.8734 16.795 15.995 17.6292L14.73 18.8306C16.1343 21.776 18.4458 24.2206 21.3252 25.7752L22.6051 24.5597C23.4807 23.7281 24.6885 23.3425 25.884 23.5127L26.6482 23.6216C28.1989 23.8424 29.338 25.19 29.2976 26.7557C29.2554 28.391 27.9357 29.7393 26.3143 29.523C18.1943 28.4395 11.8975 21.8088 11.2344 13.6438C11.102 12.0136 12.5163 10.7655 14.1512 10.8077Z" fill="white"/>
</svg>
