<svg width="40" height="40" viewBox="0 0 40 40" fill="none" xmlns="http://www.w3.org/2000/svg">
<g clip-path="url(#clip0_627_12)">
<path d="M20 39.5C30.7696 39.5 39.5 30.7696 39.5 20C39.5 9.23045 30.7696 0.5 20 0.5C9.23045 0.5 0.5 9.23045 0.5 20C0.5 30.7696 9.23045 39.5 20 39.5Z" stroke="#0085FF"/>
<path d="M17.6432 13.5711C17.4806 11.7581 15.9849 10.3547 14.1652 10.3078C12.2913 10.2594 10.5762 11.7026 10.7371 13.6841C11.4192 22.0837 17.8961 28.9038 26.2492 30.0185C28.2202 30.2815 29.7502 28.6428 29.7985 26.7685C29.8455 24.9491 28.5217 23.3831 26.7198 23.1265L25.9556 23.0176C24.6088 22.8258 23.2483 23.2602 22.2619 24.197L21.2482 25.1597C18.7143 23.7105 16.6589 21.5383 15.342 18.9399L16.3404 17.9917C17.3295 17.0523 17.8352 15.7125 17.7134 14.3538L17.6432 13.5711Z" stroke="#0085FF"/>
</g>
<defs>
<clipPath id="clip0_627_12">
<rect width="40" height="40" fill="white"/>
</clipPath>
</defs>
</svg>
