<svg width="40" height="40" viewBox="0 0 40 40" fill="none" xmlns="http://www.w3.org/2000/svg">
<g clip-path="url(#clip0_627_19)">
<path d="M20 39.5C30.7696 39.5 39.5 30.7696 39.5 20C39.5 9.23045 30.7696 0.5 20 0.5C9.23045 0.5 0.5 9.23045 0.5 20C0.5 30.7696 9.23045 39.5 20 39.5Z" fill="#0085FF" stroke="#0085FF"/>
<path d="M14.152 10.8077C15.7179 10.8481 17.005 12.0557 17.1449 13.6159L17.2151 14.3986C17.3233 15.6051 16.8742 16.795 15.9958 17.6292L14.7308 18.8306C16.1351 21.776 18.4466 24.2206 21.326 25.7752L22.6059 24.5597C23.4815 23.7281 24.6893 23.3425 25.8848 23.5127L26.649 23.6216C28.1997 23.8424 29.3388 25.19 29.2984 26.7557C29.2562 28.391 27.9365 29.7393 26.3151 29.523C18.1951 28.4395 11.8983 21.8088 11.2352 13.6438C11.1028 12.0136 12.5171 10.7655 14.152 10.8077Z" fill="white"/>
</g>
<defs>
<clipPath id="clip0_627_19">
<rect width="40" height="40" fill="white"/>
</clipPath>
</defs>
</svg>
