<svg width="38" height="40" viewBox="0 0 38 40" fill="none" xmlns="http://www.w3.org/2000/svg">
<path d="M19.1739 35.2112C29.2111 35.2112 37.3478 27.5527 37.3478 18.1056C37.3478 8.65843 29.2111 1 19.1739 1C9.1367 1 1 8.65843 1 18.1056C1 24.4371 4.65476 29.9651 10.087 32.9228V39L15.1177 34.7835C16.4219 35.0634 17.7796 35.2112 19.1739 35.2112Z" fill="#585858" stroke="#585858" stroke-linejoin="round"/>
<path d="M9.27179 21.2725C11.0787 21.2725 12.5436 19.8683 12.5436 18.1362C12.5436 16.4041 11.0787 15 9.27179 15C7.46483 15 6 16.4041 6 18.1362C6 19.8683 7.46483 21.2725 9.27179 21.2725Z" fill="white"/>
<path d="M19.0872 21.2725C20.8942 21.2725 22.359 19.8683 22.359 18.1362C22.359 16.4041 20.8942 15 19.0872 15C17.2803 15 15.8154 16.4041 15.8154 18.1362C15.8154 19.8683 17.2803 21.2725 19.0872 21.2725Z" fill="white"/>
<path d="M28.9026 21.2725C30.7096 21.2725 32.1744 19.8683 32.1744 18.1362C32.1744 16.4041 30.7096 15 28.9026 15C27.0957 15 25.6309 16.4041 25.6309 18.1362C25.6309 19.8683 27.0957 21.2725 28.9026 21.2725Z" fill="white"/>
</svg>
