<svg width="35" height="35" viewBox="0 0 35 35" fill="none" xmlns="http://www.w3.org/2000/svg">
<rect width="27" height="27" rx="13.5" fill="#0085FF"/>
<path fill-rule="evenodd" clip-rule="evenodd" d="M13.4302 0C6.01837 0 0 6.01837 0 13.4302C0 20.8437 6.01837 26.8604 13.4302 26.8604C20.8421 26.8604 26.8605 20.8437 26.8605 13.4302C26.8605 6.01837 20.8421 0 13.4302 0ZM13.4302 2.44186C19.4942 2.44186 24.4186 7.36627 24.4186 13.4302C24.4186 19.4958 19.4942 24.4186 13.4302 24.4186C7.36628 24.4186 2.44186 19.4958 2.44186 13.4302C2.44186 7.36627 7.36628 2.44186 13.4302 2.44186Z" fill="#0085FF"/>
<path fill-rule="evenodd" clip-rule="evenodd" d="M21.1995 22.9258L32.9172 34.6434C33.3926 35.1188 34.1674 35.1188 34.6428 34.6434C35.1198 34.1664 35.1198 33.3932 34.6428 32.9162L22.9267 21.1986C22.4498 20.7216 21.6765 20.7216 21.1995 21.1986C20.7226 21.6755 20.7226 22.4488 21.1995 22.9258Z" fill="#0085FF"/>
<path fill-rule="evenodd" clip-rule="evenodd" d="M12.209 7.73265V19.128C12.209 19.8019 12.756 20.3489 13.4299 20.3489C14.1039 20.3489 14.6508 19.8019 14.6508 19.128V7.73265C14.6508 7.05869 14.1039 6.51172 13.4299 6.51172C12.756 6.51172 12.209 7.05869 12.209 7.73265Z" fill="white"/>
<path fill-rule="evenodd" clip-rule="evenodd" d="M7.73265 14.6513H19.128C19.802 14.6513 20.3489 14.1044 20.3489 13.4304C20.3489 12.7564 19.802 12.2095 19.128 12.2095H7.73265C7.0587 12.2095 6.51172 12.7564 6.51172 13.4304C6.51172 14.1044 7.0587 14.6513 7.73265 14.6513Z" fill="white"/>
</svg>
