<!-- icon666.com - MILLIONS vector ICONS FREE --><svg id="svg1591" viewBox="0 0 6.3499999 6.3500002" xmlns="http://www.w3.org/2000/svg" xmlns:svg="http://www.w3.org/2000/svg"><g id="layer1" transform="translate(0 -290.65)"><path id="path2055" d="m2.1047885 291.4432a.26460982.26460982 0 0 0 -.2480469.30851l.2129076 1.27951h-1.27537636a.26460982.26460982 0 0 0 -.2656152.26562v1.05626a.26460982.26460982 0 0 0 .2656152.26614h1.27537636l-.2129076 1.27899a.26460982.26460982 0 0 0 .3984255.26975l3.4395834-2.11718a.26460982.26460982 0 0 0 0-.45114l-3.4395834-2.11718a.26460982.26460982 0 0 0 -.1503786-.0393zm.3689694.79479 2.5760708 1.58801-2.5760708 1.58595.1679497-1.01389a.26460982.26460982 0 0 0 -.2594162-.30851h-1.3244671v-.52916h1.3244671a.26460982.26460982 0 0 0 .2594162-.30851z" font-variant-ligatures="normal" font-variant-position="normal" font-variant-caps="normal" font-variant-numeric="normal" font-variant-alternates="normal" font-feature-settings="normal" text-indent="0" text-align="start" text-decoration-line="none" text-decoration-style="solid" text-decoration-color="rgb(0,0,0)" text-transform="none" text-orientation="mixed" white-space="normal" shape-padding="0" isolation="auto" mix-blend-mode="normal" solid-color="rgb(0,0,0)" solid-opacity="1" vector-effect="none"></path></g></svg>