<svg width="513" height="502" viewBox="0 0 513 502" fill="none" xmlns="http://www.w3.org/2000/svg">
<path d="M345.54 323.646C340.44 321.527 334.587 323.944 332.469 329.045C321.01 356.634 296.047 376.308 267.323 380.39C261.855 381.167 258.052 386.229 258.83 391.697C259.539 396.688 263.818 400.292 268.718 400.292C269.187 400.292 269.66 400.259 270.138 400.191C305.823 395.12 336.784 370.798 350.941 336.717C353.058 331.616 350.641 325.764 345.54 323.646Z" fill="white"/>
<path d="M387.999 84.9531C387.995 84.9641 387.991 84.9751 387.987 84.9871C387.983 84.9981 387.98 85.0101 387.976 85.0221L387.999 84.9531Z" fill="black"/>
<path d="M509.065 354.039C505.111 350.183 498.779 350.263 494.923 354.217L478.262 371.304L452.79 371.438L393.184 349.06C394.293 346.475 395.335 343.854 396.308 341.198H452C453.587 341.198 455.151 340.82 456.563 340.096L495.563 320.096C498.9 318.385 501 314.949 501 311.198V290.948C501 285.425 496.522 280.948 491 280.948C485.478 280.948 481 285.425 481 290.948V305.088L449.585 321.198H402.144C404.557 310.25 405.839 298.865 405.839 287.178V260.522C424.07 258.05 440.763 248.869 452.689 234.491L485.941 194.398C491.989 190.027 496.566 183.879 499.057 176.862C499.115 176.7 499.188 176.546 499.245 176.383C499.295 176.244 499.333 176.115 499.379 175.978C499.405 175.897 499.44 175.819 499.466 175.738C499.507 175.618 499.54 175.497 499.577 175.377C499.585 175.352 499.595 175.323 499.603 175.298C499.611 175.273 499.616 175.248 499.624 175.224C499.647 175.147 499.674 175.071 499.695 174.994C499.726 174.89 499.748 174.785 499.778 174.681C502.789 164.452 501.182 153.514 495.31 144.569C495.281 144.524 495.25 144.479 495.22 144.434L454.42 82.3641C457.979 60.8181 451.492 37.9151 434.933 21.3551C407.638 -5.93788 363.23 -5.93688 335.937 21.3551C332.032 25.2601 332.032 31.5921 335.937 35.4981L366.864 66.4251C368.332 67.8931 369.293 69.7181 369.715 71.6861H338.738C336.086 71.6861 333.542 72.7401 331.666 74.6161C329.791 76.4921 328.737 79.0361 328.738 81.6891C328.746 114.772 355.662 141.686 388.738 141.686C394.99 141.686 401.133 140.698 406.972 138.833C410.684 143.559 414.706 148.152 419.089 152.655C393.309 166.502 370.001 184.213 349.68 205.45L343.399 211.986C329.999 201.171 314.906 193.042 298.737 187.861L305.389 163.871C306.865 158.549 303.746 153.038 298.424 151.563C293.106 150.089 287.592 153.206 286.115 158.527L279.287 183.151C271.599 181.865 263.743 181.199 255.769 181.199C247.725 181.199 239.8 181.876 232.049 183.184L225.405 158.591C223.964 153.259 218.479 150.105 213.142 151.545C207.811 152.985 204.656 158.475 206.096 163.807L212.611 187.922C196.618 193.072 181.684 201.109 168.401 211.779L162.334 205.466C142 184.216 118.691 166.503 92.9097 152.655C97.2937 148.151 101.316 143.559 105.027 138.833C110.866 140.698 117.009 141.686 123.261 141.686C156.337 141.686 183.253 114.771 183.261 81.6891C183.262 79.0371 182.208 76.4921 180.333 74.6161C178.457 72.7401 175.913 71.6861 173.261 71.6861H142.29C142.71 69.7141 143.67 67.8911 145.136 66.4251L176.063 35.4981C179.968 31.5931 179.968 25.2611 176.063 21.3551C148.769 -5.93688 104.361 -5.93788 77.0667 21.3551C60.5087 37.9151 54.0217 60.8161 57.5807 82.3631L16.8857 144.281L16.7807 144.435C16.7507 144.48 16.7197 144.525 16.6907 144.57C10.7947 153.551 9.1967 164.54 12.2427 174.757C12.2657 174.836 12.2827 174.916 12.3057 174.995C12.3217 175.053 12.3417 175.11 12.3587 175.168C12.3667 175.195 12.3737 175.223 12.3817 175.25C12.3907 175.281 12.4017 175.309 12.4107 175.339C12.4517 175.473 12.4877 175.606 12.5337 175.739C12.5607 175.825 12.5977 175.906 12.6257 175.991C12.6687 176.121 12.7087 176.254 12.7547 176.383C12.8107 176.544 12.8827 176.696 12.9407 176.856C15.4307 183.875 20.0087 190.025 26.0587 194.397L59.3107 234.49C71.1657 248.784 87.7327 257.943 105.838 260.478V287.177C105.838 298.864 107.119 310.249 109.533 321.197H62.4977L31.0827 305.087V290.947C31.0827 285.424 26.6047 280.947 21.0827 280.947C15.5607 280.947 11.0827 285.424 11.0827 290.947V311.197C11.0827 314.948 13.1827 318.384 16.5197 320.095L55.5197 340.095C56.9317 340.819 58.4967 341.197 60.0827 341.197H115.37C116.359 343.898 117.42 346.563 118.55 349.19L59.2927 371.437L33.8207 371.303L17.1597 354.217C13.3037 350.263 6.9727 350.183 3.0177 354.039C-0.936296 357.894 -1.0163 364.226 2.8387 368.18L22.4217 388.263C24.2917 390.18 26.8517 391.267 29.5287 391.282L61.0287 391.449H61.0817C62.2817 391.449 63.4727 391.233 64.5967 390.811L127.674 367.13C129.729 370.591 131.919 373.957 134.226 377.232L77.0667 402.291C75.9367 402.787 74.9087 403.487 74.0337 404.356L33.7837 444.356C31.3167 446.807 30.3017 450.363 31.0997 453.747L35.6837 473.164C36.7707 477.767 40.8747 480.869 45.4077 480.869C46.1687 480.869 46.9417 480.781 47.7147 480.599C53.0897 479.33 56.4177 473.944 55.1497 468.569L51.8517 454.599L86.8077 419.86L147.271 393.353C152.045 398.497 157.166 403.298 162.586 407.728L118.467 422.199C115.988 423.012 113.925 424.761 112.718 427.074L91.9677 466.824C91.2227 468.252 90.8327 469.84 90.8327 471.451V491.201C90.8327 496.724 95.3107 501.201 100.833 501.201C106.355 501.201 110.833 496.724 110.833 491.201V473.904L128.565 439.935L183.332 421.971C204.836 434.215 229.556 441.201 255.839 441.201C282.182 441.201 306.954 434.183 328.493 421.887L383.518 439.935L401.25 473.904V491.201C401.25 496.724 405.728 501.201 411.25 501.201C416.772 501.201 421.25 496.724 421.25 491.201V471.451C421.25 469.84 420.86 468.252 420.115 466.824L399.365 427.074C398.158 424.761 396.094 423.012 393.616 422.199L349.207 407.633C354.629 403.193 359.749 398.381 364.522 393.226L425.275 419.86L460.232 454.6L456.934 468.57C455.665 473.945 458.994 479.331 464.37 480.6C465.142 480.783 465.915 480.87 466.676 480.87C471.208 480.87 475.314 477.767 476.4 473.165L480.983 453.748C481.782 450.364 480.765 446.809 478.299 444.357L438.049 404.357C437.174 403.487 436.146 402.787 435.016 402.292L377.548 377.098C379.847 373.826 382.031 370.464 384.079 367.007L447.486 390.812C448.61 391.234 449.8 391.45 451.001 391.45H451.054L482.554 391.283C485.232 391.269 487.791 390.181 489.661 388.264L509.244 368.181C513.099 364.225 513.019 357.894 509.065 354.039ZM357.861 29.1371C377.262 16.3051 403.717 18.4231 420.791 35.4971C440.228 54.9341 440.274 86.6071 420.904 106.094L420.798 106.201C420.448 106.55 420.118 106.853 419.818 107.102C419.741 107.166 419.664 107.231 419.589 107.297C411.729 113.948 399.881 113.453 392.571 106.144C387.082 100.655 385.262 92.4081 387.935 85.1341C387.953 85.0841 387.971 85.0351 387.988 84.9851C388.015 84.9121 388.034 84.8381 388.06 84.7651C388.078 84.7101 388.097 84.6561 388.114 84.6001C392.108 73.2631 389.35 60.6231 381.007 52.2801L357.861 29.1371ZM350.006 91.6851H366.743C366.673 102.218 370.745 112.604 378.427 120.287C378.45 120.31 378.473 120.33 378.496 120.353C364.58 116.662 353.614 105.638 350.006 91.6851ZM433.145 122.01C433.738 121.494 434.337 120.945 434.946 120.337L435.081 120.202C439.414 115.842 443.046 111.045 445.991 105.954L478.435 155.319C478.437 155.322 478.439 155.325 478.441 155.329C481.178 159.495 481.923 164.627 480.488 169.41C480.459 169.504 480.431 169.596 480.398 169.687C480.394 169.7 480.389 169.713 480.384 169.726C480.371 169.767 480.354 169.805 480.341 169.846C479.835 171.309 479.134 172.671 478.255 173.905C464.088 164.928 452.735 156.527 442.9 147.767C442.881 147.75 442.862 147.733 442.843 147.716C436.122 141.732 430.257 135.682 425.063 129.41C427.957 127.208 430.666 124.739 433.145 122.01ZM434.67 167.082C443.355 174.373 453.092 181.479 464.541 188.871L437.295 221.723C427.03 234.099 411.92 241.198 395.84 241.198C381.669 241.198 367.984 235.511 358.076 225.576L364.116 219.291C384.586 197.899 408.299 180.36 434.67 167.082ZM133.504 120.353C133.527 120.33 133.551 120.309 133.574 120.287C141.256 112.605 145.328 102.219 145.258 91.6861H161.995C158.386 105.639 147.42 116.662 133.504 120.353ZM91.2097 35.4981C108.285 18.4221 134.737 16.3031 154.14 29.1371L130.994 52.2821C122.671 60.6061 119.906 73.2091 123.882 84.5841C123.903 84.6541 123.927 84.7221 123.949 84.7911C123.977 84.8691 123.997 84.9481 124.026 85.0261C124.039 85.0631 124.052 85.0991 124.066 85.1361C126.739 92.4091 124.92 100.657 119.43 106.145C112.121 113.454 100.275 113.949 92.4117 107.299C92.3367 107.233 92.2597 107.168 92.1827 107.104C91.8817 106.855 91.5517 106.552 91.2227 106.223L91.1037 106.103C71.7267 86.6071 71.7737 54.9341 91.2097 35.4981ZM76.9267 120.209L77.0737 120.356C77.6677 120.948 78.2627 121.494 78.8547 122.009C81.3337 124.739 84.0427 127.208 86.9367 129.409C81.7457 135.678 75.8827 141.725 69.1637 147.708C69.1397 147.729 69.1157 147.751 69.0917 147.772C59.2607 156.527 47.9097 164.927 33.7447 173.903C32.8657 172.669 32.1647 171.307 31.6587 169.844C31.6457 169.804 31.6287 169.765 31.6157 169.724C31.6107 169.711 31.6067 169.698 31.6017 169.685C31.5727 169.606 31.5457 169.518 31.5137 169.415C30.0757 164.629 30.8207 159.495 33.5587 155.327C33.5607 155.324 33.5627 155.321 33.5647 155.317L66.0097 105.95C68.9567 111.046 72.5907 115.847 76.9267 120.209ZM74.7057 221.723L47.4597 188.871C58.9097 181.478 68.6467 174.372 77.3307 167.082C103.702 180.36 127.416 197.9 147.901 219.307L153.704 225.345C143.894 235.382 130.212 241.148 116.006 241.193C99.9837 241.148 84.9377 234.06 74.7057 221.723ZM158.709 376.149C158.129 375.155 157.393 374.298 156.551 373.584C150.937 366.739 145.972 359.311 141.763 351.396C141.738 351.325 141.722 351.254 141.695 351.184C141.385 350.358 140.968 349.605 140.48 348.917C137.457 342.938 134.854 336.7 132.721 330.238C132.587 328.831 132.16 327.51 131.503 326.334C127.824 313.942 125.838 300.796 125.838 287.178C125.838 287.178 125.838 260.52 125.838 260.508C125.838 261.81 148.225 253.323 150.369 252.108C158.84 247.309 165.883 240.862 172.997 234.314C188.383 220.154 206.493 209.662 226.899 204.663C227.087 204.624 227.275 204.601 227.462 204.55C227.568 204.521 227.667 204.481 227.771 204.449C236.82 202.305 246.197 201.197 255.767 201.197C265.239 201.197 274.521 202.28 283.485 204.382C283.575 204.41 283.66 204.445 283.751 204.47C283.953 204.526 284.156 204.552 284.358 204.595C306.457 209.952 326.577 221.532 342.717 238.497C354.14 250.504 369.467 258.249 385.837 260.509V287.177C385.837 361.076 327.52 421.197 255.837 421.197C217.248 421.198 182.538 403.767 158.709 376.149Z" fill="white"/>
<path d="M349 305.208C354.526 305.208 359.005 300.729 359.005 295.203C359.005 289.678 354.526 285.198 349 285.198C343.475 285.198 338.995 289.678 338.995 295.203C338.995 300.729 343.475 305.208 349 305.208Z" fill="white"/>
</svg>
