<svg width="470" height="470" viewBox="0 0 470 470" fill="none" xmlns="http://www.w3.org/2000/svg">
<path d="M426.669 213.338H361.25C357.057 185.223 345.241 116.826 327.544 99.1299C311.211 82.7969 261.961 68.0669 204.065 51.8799C191.94 48.4839 181.377 45.5359 173.877 43.1719C142.377 33.2139 102.96 2.57786 102.564 2.26586C99.6259 -0.0361357 95.6469 -0.640136 92.1889 0.713864C91.2729 1.06786 0.00292969 37.1719 0.00292969 138.672C0.00292969 142.474 2.02393 145.995 5.31593 147.901C39.1699 167.526 52.8159 190.005 65.9829 211.755C72.6799 222.781 79.2419 233.307 87.8649 242.599C86.3619 246.96 85.3379 251.41 85.3379 256.005V426.672C85.3379 450.203 104.484 469.339 128.005 469.339H426.672C450.193 469.339 469.339 450.204 469.339 426.672V256.005C469.336 232.474 450.19 213.338 426.669 213.338ZM84.2319 200.693C71.6689 179.964 56.1699 154.412 21.4609 132.714C24.3149 62.5679 77.3359 31.2969 94.5859 22.9639C106.94 32.0789 139.107 54.5579 167.461 63.5059C175.128 65.9329 185.94 68.9539 198.315 72.4229C235.878 82.9329 298.753 100.517 312.461 114.215C322.494 124.257 333.629 174.573 339.643 213.34H295.215L276.565 166.715C275.336 163.59 272.69 161.246 269.44 160.371C263.294 158.715 245.94 153.715 239.44 150.465C234.752 148.121 229.586 148.819 226.544 153.194C225.669 153.902 222.461 155.309 220.127 156.329C212.023 159.892 200.898 164.756 193.794 175.423C191.815 178.381 191.461 182.142 192.815 185.423C204.794 214.277 253.107 236.392 273.336 244.558C290.169 251.36 321.253 278.329 324.649 295.037C325.42 298.86 324.378 300.547 323.128 301.797C307.836 317.057 275.211 306.328 251.399 289.891C224.586 271.391 193.295 258.11 171.691 256.058C168.337 255.735 165.17 255.579 162.045 255.433C148.107 254.787 137.087 254.277 112.941 236.714C100.648 227.776 93.0439 215.224 84.2319 200.693ZM272.246 213.338H256.598C239.452 204.382 223.315 193.541 215.711 182.869C219.461 179.911 224.294 177.796 228.69 175.859C231.419 174.671 233.961 173.557 236.232 172.265C243.565 175.078 252.92 177.88 258.732 179.536L272.246 213.338ZM426.669 448.005H128.003C116.232 448.005 106.67 438.432 106.67 426.672H448.003C448.003 438.432 438.44 448.005 426.669 448.005ZM448.003 405.338H106.669V384.005H448.002L448.003 405.338ZM448.003 362.672H106.669V258.232C131.971 275.185 146.81 276.081 161.044 276.745C163.836 276.88 166.669 277.005 169.648 277.287C187.627 279.006 215.606 291.12 239.273 307.454C257.627 320.11 281.377 330.569 302.898 330.569C316.086 330.569 328.44 326.642 338.211 316.881C345.086 310.006 347.628 300.985 345.544 290.787C341.413 270.439 318.307 247.989 298.769 234.672H426.669C438.44 234.672 448.002 244.245 448.002 256.005L448.003 362.672Z" fill="white"/>
</svg>
