<svg width="800" height="480" viewBox="0 0 800 480" fill="none" xmlns="http://www.w3.org/2000/svg">
<path d="M412.8 160C409.333 160.107 406 161.547 403.547 164.053L333.2 234.187L289.867 190.987C277.733 178.347 258.133 197.867 270.8 209.973L323.68 262.72C328.933 267.973 337.467 267.973 342.747 262.72L422.613 183.067C431.413 174.533 424.933 160 412.827 160H412.8ZM13.3333 266.667H93.3333C100.72 266.667 106.667 272.613 106.667 280C106.667 287.387 100.72 293.333 93.3333 293.333H13.3333C5.94667 293.333 0 287.387 0 280C0 272.613 5.94667 266.667 13.3333 266.667ZM13.3333 160H93.3333C100.72 160 106.667 165.947 106.667 173.333C106.667 180.72 100.72 186.667 93.3333 186.667H13.3333C5.94667 186.667 0 180.72 0 173.333C0 165.947 5.94667 160 13.3333 160ZM13.3333 53.3333H93.3333C100.72 53.3333 106.667 59.28 106.667 66.6667C106.667 74.0533 100.72 80 93.3333 80H13.3333C5.94667 80 0 74.0533 0 66.6667C0 59.28 5.94667 53.3333 13.3333 53.3333ZM653.333 346.667C616.667 346.667 586.667 376.667 586.667 413.333C586.667 450 616.667 480 653.333 480C690 480 720 450 720 413.333C720 376.667 690 346.667 653.333 346.667ZM653.333 373.333C675.573 373.333 693.333 391.093 693.333 413.333C693.333 435.573 675.573 453.333 653.333 453.333C631.093 453.333 613.333 435.573 613.333 413.333C613.333 391.093 631.093 373.333 653.333 373.333ZM306.667 346.667C270 346.667 240 376.667 240 413.333C240 450 270 480 306.667 480C343.333 480 373.333 450 373.333 413.333C373.333 376.667 343.333 346.667 306.667 346.667ZM306.667 373.333C328.907 373.333 346.667 391.093 346.667 413.333C346.667 435.573 328.907 453.333 306.667 453.333C284.427 453.333 266.667 435.573 266.667 413.333C266.667 391.093 284.427 373.333 306.667 373.333ZM173.333 0C151.413 0 133.333 18.08 133.333 40V333.333C133.333 355.253 151.413 373.333 173.333 373.333H226.667C244.693 373.6 244.693 346.4 226.667 346.667H173.333C165.707 346.667 160 340.96 160 333.333V40C160 32.3733 165.707 26.6667 173.333 26.6667H520C527.627 26.6667 533.333 32.3733 533.333 40V346.667H386.667C369.067 346.667 369.387 373.6 386.667 373.333H573.333C590.933 373.333 590.773 346.667 573.333 346.667H560V106.667H672.72L773.333 263.893V333.333C773.333 340.96 767.627 346.667 760 346.667H733.333C715.893 346.667 715.893 373.333 733.333 373.333H760C781.92 373.333 800 355.253 800 333.333V260C800 257.467 799.28 254.933 797.92 252.8L691.253 86.1333C688.8 82.32 684.587 80 680 80H560V40C560 18.08 541.92 0 520 0H173.333Z" fill="white"/>
</svg>
