<!-- icon666.com - MILLIONS vector ICONS FREE --><svg id="Layer_3" enable-background="new 0 0 64 64" viewBox="0 0 64 64" xmlns="http://www.w3.org/2000/svg"><g><path d="m60.657 36.142-2.849-2.849-4-4c-.003-.003-.005-.006-.008-.008l-4.109-4.015-1.992-1.992c.187-.391.301-.824.301-1.285 0-1.654-1.346-3-3-3-.462 0-.894.113-1.285.301l-2.085-2.085-.348-.348-.16-.16-6.415-6.414c-.285-.286-.715-.371-1.09-.217-.374.154-.617.518-.617.923 0 2.933.97 5.711 2.74 7.991-2.522-1.309-4.694-3.198-6.372-5.562l-1.631 1.157c2.33 3.285 5.526 5.731 9.263 7.137v.228c-3.131-.236-6.046-1.567-8.29-3.827l-1.42 1.409c2.623 2.641 6.042 4.178 9.71 4.418v4.524c0 2.54.989 4.928 2.785 6.725.77.77 1.685 1.33 2.68 1.671l1.929 1.844 4 4c.271.271.563.507.865.721l-1.037 1.037c-1.782 1.782-2.851 4.084-3.074 6.563-2.451.132-4.877.769-7.073 1.867l-.422.211c-.361.181-.579.562-.55.966.028.403.297.749.681.877l5.525 1.843 1.843 5.525c.128.384.474.652.877.681.026 0 .049.001.073.001.377 0 .725-.212.895-.553l.211-.422c1.097-2.195 1.734-4.62 1.866-7.071 2.473-.213 4.804-1.234 6.646-2.933l4.707-4.346c1.614-1.49 2.527-3.521 2.571-5.718s-.787-4.262-2.341-5.815zm-4.262 5.151c-1.816 1.816-4.77 1.816-6.586 0l-.643-.643c1.683-.016 3.361-.662 4.643-1.943 1.281-1.281 1.927-2.959 1.943-4.643l.643.643c1.815 1.815 1.815 4.771 0 6.586zm-4-4c-1.816 1.816-4.771 1.815-6.603-.016l-.1-.096c1.658-.222 3.161-1.019 4.291-2.289 1.221-1.373 1.804-3.103 1.765-4.818l.648.633c1.814 1.816 1.814 4.771-.001 6.586zm-7.395-16.3c.552 0 1 .449 1 1s-.448 1-1 1-1-.449-1-1 .448-1 1-1zm-6.971-4.558c-.391.276-.693.665-.866 1.119-.848-1.147-1.468-2.431-1.818-3.803zm.971 12.032v-10.06c0-.338.469-.532.707-.293l2.594 2.594c-.188.39-.301.823-.301 1.285 0 1.654 1.346 3 3 3 .462 0 .894-.114 1.285-.301l2 2c1.874 1.874 1.963 4.892.203 6.872-.927 1.042-2.204 1.639-3.599 1.68-1.388.021-2.704-.479-3.69-1.466-1.418-1.419-2.199-3.304-2.199-5.311zm7.226 30.742-1.176-3.525c-.099-.299-.333-.533-.632-.632l-3.525-1.176c1.547-.533 3.177-.818 4.812-.859l1.38 1.38c-.042 1.635-.326 3.265-.859 4.812zm12.843-13.002-4.706 4.345c-1.611 1.487-3.678 2.345-5.856 2.439l-1.396-1.396c.1-2.16.987-4.177 2.526-5.716l1.517-1.517c.634.193 1.29.292 1.948.292 1.705 0 3.409-.648 4.707-1.946 1.263-1.263 1.906-2.911 1.94-4.569.835 1.077 1.277 2.392 1.25 3.78-.033 1.646-.719 3.17-1.93 4.288z"></path><path d="m30.809 24.293-4-4c-.003-.003-.005-.006-.008-.008l-4.109-4.015-1.992-1.992c.186-.391.3-.824.3-1.285 0-1.654-1.346-3-3-3-.462 0-.894.113-1.285.301l-2.085-2.086-.348-.348-.16-.16-6.415-6.414c-.286-.286-.715-.371-1.09-.217-.374.155-.617.519-.617.924 0 2.933.97 5.711 2.74 7.991-2.522-1.31-4.694-3.198-6.372-5.563l-1.631 1.158c2.33 3.284 5.527 5.731 9.263 7.137v.228c-3.131-.236-6.046-1.567-8.29-3.827l-1.42 1.409c2.623 2.641 6.042 4.178 9.71 4.418v4.524c0 2.54.989 4.929 2.785 6.725.77.77 1.684 1.33 2.679 1.671l1.931 1.844 4 4c.271.271.563.507.865.721l-1.037 1.037c-1.782 1.782-2.851 4.084-3.074 6.563-2.451.132-4.877.769-7.073 1.867l-.422.211c-.361.181-.579.562-.55.966.028.403.297.749.681.877l5.525 1.843 1.843 5.525c.128.384.474.652.877.681.025 0 .048.001.072.001.377 0 .725-.212.895-.553l.211-.422c1.097-2.195 1.734-4.62 1.866-7.071 2.473-.213 4.804-1.234 6.646-2.933l4.707-4.346c1.614-1.49 2.527-3.521 2.571-5.717.044-2.197-.787-4.263-2.341-5.817zm-1.414 8c-1.816 1.816-4.77 1.816-6.586 0l-.642-.642c1.683-.016 3.361-.662 4.642-1.944 1.281-1.281 1.927-2.959 1.943-4.643l.643.643c1.815 1.816 1.815 4.77 0 6.586zm-4-4c-1.815 1.816-4.77 1.816-6.603-.016l-.1-.096c1.658-.222 3.161-1.018 4.29-2.288 1.221-1.373 1.804-3.104 1.765-4.819l.648.633c1.815 1.816 1.815 4.77 0 6.586zm-7.395-16.3c.552 0 1 .449 1 1s-.448 1-1 1-1-.449-1-1 .448-1 1-1zm-6.971-4.558c-.391.276-.693.665-.866 1.119-.848-1.147-1.468-2.431-1.818-3.803zm.971 12.032v-10.06c0-.338.469-.531.707-.293l2.594 2.594c-.188.39-.301.823-.301 1.285 0 1.654 1.346 3 3 3 .462 0 .894-.114 1.285-.301l2 2c1.874 1.874 1.963 4.892.203 6.872-.927 1.042-2.205 1.639-3.599 1.68-1.395.041-2.704-.479-3.69-1.465-1.418-1.42-2.199-3.305-2.199-5.312zm7.226 30.742-1.176-3.525c-.099-.299-.333-.533-.632-.632l-3.525-1.176c1.547-.533 3.177-.818 4.812-.859l1.38 1.38c-.042 1.635-.326 3.265-.859 4.812zm12.843-13.002-4.706 4.345c-1.611 1.487-3.678 2.345-5.856 2.439l-1.396-1.396c.1-2.16.987-4.177 2.526-5.716l1.517-1.517c.634.193 1.29.292 1.948.292 1.705 0 3.409-.648 4.707-1.946 1.263-1.263 1.906-2.911 1.94-4.569.835 1.078 1.277 2.393 1.25 3.781-.033 1.646-.719 3.169-1.93 4.287z"></path></g></svg>